<svg width="332" height="157" viewBox="0 0 332 157" fill="none" xmlns="http://www.w3.org/2000/svg">
<path d="M78.8636 0.29545C89.0909 0.29545 98.4659 1.8106 106.989 4.8409C115.606 7.77651 123.371 11.6591 130.284 16.4886C137.292 21.2235 143.447 26.2424 148.75 31.5455C152.159 34.6705 155.284 37.8901 158.125 41.2045C161.061 44.5189 163.807 47.7386 166.364 50.8636C168.636 47.7386 171.051 44.661 173.608 41.6307C176.165 38.6004 179.432 35.2386 183.409 31.5455C191.364 23.5909 201.165 16.3939 212.812 9.95454C224.555 3.51515 238.239 0.29545 253.864 0.29545C268.258 0.29545 281.326 3.79924 293.068 10.8068C304.905 17.7197 314.28 27.0947 321.193 38.9318C328.201 50.6742 331.705 63.7424 331.705 78.1364C331.705 89.0265 329.669 99.2538 325.597 108.818C321.619 118.288 316.08 126.621 308.977 133.818C301.875 140.92 293.589 146.508 284.119 150.58C274.744 154.557 264.659 156.545 253.864 156.545C243.447 156.545 233.883 155.078 225.17 152.142C216.553 149.112 208.741 145.277 201.733 140.636C194.82 135.902 188.712 130.977 183.409 125.864C180 122.455 176.875 119.093 174.034 115.778C171.193 112.369 168.636 109.102 166.364 105.977C163.807 109.102 161.061 112.369 158.125 115.778C155.284 119.093 152.159 122.455 148.75 125.864C143.447 130.977 137.292 135.902 130.284 140.636C123.371 145.277 115.606 149.112 106.989 152.142C98.4659 155.078 89.0909 156.545 78.8636 156.545C64.2803 156.545 51.0701 153.042 39.233 146.034C27.3958 139.027 17.9735 129.604 10.9659 117.767C3.95833 105.93 0.454547 92.7197 0.454547 78.1364C0.454547 67.3409 2.44318 57.2557 6.42046 47.8807C10.4924 38.411 16.0795 30.125 23.1818 23.0227C30.3788 15.9205 38.7121 10.3807 48.1818 6.4034C57.7462 2.33143 67.9735 0.29545 78.8636 0.29545ZM32.8409 78.1364C32.8409 86.6591 34.8769 94.4242 38.9489 101.432C43.1155 108.345 48.6553 113.884 55.5682 118.051C62.5758 122.123 70.3409 124.159 78.8636 124.159C88.2386 124.159 96.8087 122.028 104.574 117.767C112.339 113.506 119.489 108.25 126.023 102C130.284 97.7386 134.025 93.6193 137.244 89.642C140.464 85.6648 143.352 81.8295 145.909 78.1364C143.352 74.7273 140.511 71.0814 137.386 67.1989C134.356 63.2216 130.568 59.1023 126.023 54.8409C119.773 48.5909 112.67 43.3352 104.716 39.0739C96.8561 34.8125 88.2386 32.6818 78.8636 32.6818C70.3409 32.6818 62.5758 34.7651 55.5682 38.9318C48.6553 43.0038 43.1155 48.4962 38.9489 55.4091C34.8769 62.2273 32.8409 69.803 32.8409 78.1364ZM299.318 78.1364C299.318 69.803 297.235 62.2273 293.068 55.4091C288.996 48.4962 283.504 43.0038 276.591 38.9318C269.773 34.7651 262.197 32.6818 253.864 32.6818C247.424 32.6818 241.364 33.6761 235.682 35.6648C230 37.5587 224.697 40.2102 219.773 43.6193C214.848 46.9337 210.303 50.6742 206.136 54.8409C201.023 59.6705 196.761 64.358 193.352 68.9034C190.038 73.3542 187.67 76.4318 186.25 78.1364C188.807 81.8295 191.695 85.6648 194.915 89.642C198.134 93.6193 201.875 97.7386 206.136 102C212.67 108.25 219.82 113.506 227.585 117.767C235.445 122.028 244.205 124.159 253.864 124.159C262.197 124.159 269.773 122.123 276.591 118.051C283.504 113.884 288.996 108.345 293.068 101.432C297.235 94.4242 299.318 86.6591 299.318 78.1364Z" fill="white"/>
</svg>
