<svg width="512" height="512" viewBox="0 0 512 512" fill="none" xmlns="http://www.w3.org/2000/svg">
<path d="M167.864 185.295C178.091 185.295 187.466 186.811 195.989 189.841C204.606 192.777 212.371 196.659 219.284 201.489C226.292 206.223 232.447 211.242 237.75 216.545C241.159 219.67 244.284 222.89 247.125 226.205C250.061 229.519 252.807 232.739 255.364 235.864C257.636 232.739 260.051 229.661 262.608 226.631C265.165 223.6 268.432 220.239 272.409 216.545C280.364 208.591 290.165 201.394 301.812 194.955C313.555 188.515 327.239 185.295 342.864 185.295C357.258 185.295 370.326 188.799 382.068 195.807C393.905 202.72 403.28 212.095 410.193 223.932C417.201 235.674 420.705 248.742 420.705 263.136C420.705 274.027 418.669 284.254 414.597 293.818C410.619 303.288 405.08 311.621 397.977 318.818C390.875 325.92 382.589 331.508 373.119 335.58C363.744 339.557 353.659 341.545 342.864 341.545C332.447 341.545 322.883 340.078 314.17 337.142C305.553 334.112 297.741 330.277 290.733 325.636C283.82 320.902 277.712 315.977 272.409 310.864C269 307.455 265.875 304.093 263.034 300.778C260.193 297.369 257.636 294.102 255.364 290.977C252.807 294.102 250.061 297.369 247.125 300.778C244.284 304.093 241.159 307.455 237.75 310.864C232.447 315.977 226.292 320.902 219.284 325.636C212.371 330.277 204.606 334.112 195.989 337.142C187.466 340.078 178.091 341.545 167.864 341.545C153.28 341.545 140.07 338.042 128.233 331.034C116.396 324.027 106.973 314.604 99.9659 302.767C92.9583 290.93 89.4545 277.72 89.4545 263.136C89.4545 252.341 91.4432 242.256 95.4205 232.881C99.4924 223.411 105.08 215.125 112.182 208.023C119.379 200.92 127.712 195.381 137.182 191.403C146.746 187.331 156.973 185.295 167.864 185.295ZM121.841 263.136C121.841 271.659 123.877 279.424 127.949 286.432C132.116 293.345 137.655 298.884 144.568 303.051C151.576 307.123 159.341 309.159 167.864 309.159C177.239 309.159 185.809 307.028 193.574 302.767C201.339 298.506 208.489 293.25 215.023 287C219.284 282.739 223.025 278.619 226.244 274.642C229.464 270.665 232.352 266.83 234.909 263.136C232.352 259.727 229.511 256.081 226.386 252.199C223.356 248.222 219.568 244.102 215.023 239.841C208.773 233.591 201.67 228.335 193.716 224.074C185.856 219.812 177.239 217.682 167.864 217.682C159.341 217.682 151.576 219.765 144.568 223.932C137.655 228.004 132.116 233.496 127.949 240.409C123.877 247.227 121.841 254.803 121.841 263.136ZM388.318 263.136C388.318 254.803 386.235 247.227 382.068 240.409C377.996 233.496 372.504 228.004 365.591 223.932C358.773 219.765 351.197 217.682 342.864 217.682C336.424 217.682 330.364 218.676 324.682 220.665C319 222.559 313.697 225.21 308.773 228.619C303.848 231.934 299.303 235.674 295.136 239.841C290.023 244.67 285.761 249.358 282.352 253.903C279.038 258.354 276.67 261.432 275.25 263.136C277.807 266.83 280.695 270.665 283.915 274.642C287.134 278.619 290.875 282.739 295.136 287C301.67 293.25 308.82 298.506 316.585 302.767C324.445 307.028 333.205 309.159 342.864 309.159C351.197 309.159 358.773 307.123 365.591 303.051C372.504 298.884 377.996 293.345 382.068 286.432C386.235 279.424 388.318 271.659 388.318 263.136Z" fill="black"/>
</svg>
